<?xml version="1.0" encoding="utf-8"?>
<!-- Generator: Adobe Illustrator 27.8.0, SVG Export Plug-In . SVG Version: 6.00 Build 0)  -->
<svg version="1.1" id="Layer_1" xmlns="http://www.w3.org/2000/svg" xmlns:xlink="http://www.w3.org/1999/xlink" x="0px" y="0px"
	 viewBox="0 0 1920 528" style="enable-background:new 0 0 1920 528;" xml:space="preserve">
<style type="text/css">
	.st0{fill:#666666;stroke:#666666;stroke-miterlimit:10;}
	.st1{fill:#666666;stroke:#666666;stroke-width:1.4356;stroke-miterlimit:10;}
	.st2{fill:#666666;stroke:#666666;stroke-width:1.18;stroke-miterlimit:10;}
	.st3{fill:#666666;stroke:#666666;stroke-width:1.1318;stroke-miterlimit:10;}
	.st4{fill:#66CCCC;}
	.st5{fill:#99CC00;}
	.st6{fill:none;stroke:#FFFFFF;stroke-width:8;stroke-miterlimit:10;}
	.st7{fill:#666666;stroke:#666666;stroke-width:1.1806;stroke-miterlimit:10;}
	.st8{font-family:'HiraginoSans-W0-83pv-RKSJ-H';}
	.st9{font-size:55px;}
	.st10{letter-spacing:7;}
	.st11{font-size:60px;}
	.st12{letter-spacing:6;}
	.st13{font-size:65px;}
	.st14{fill:#8B001A;stroke:#FF0000;stroke-miterlimit:10;}
	.st15{fill:none;}
</style>
<path class="st0" d="M733.5,133.5c-2.9,86.67,26.02,214.37-96.54,224.94C506.89,354.13,536.23,223.24,533.5,133.5h-25
	c-1.34,101.91-18.24,240.32,121.67,249.95c146.08-3.58,130.18-145.33,128.33-249.95H733.5z"/>
<rect x="785.5" y="12" class="st1" width="25" height="370"/>
<path class="st0" d="M487.5,258.26V382.5h-25c0.14-28.95-0.1-94.73,0-124.24c-0.09-126.42-190.97-132.79-199.96-7.3
	c0.14,2.41,0.22,4.84-0.04,7.28V383.5l0,0v-1h-25c0,0,0-123.98,0-123.98c0-2.45,0.08-4.89,0.22-7.31
	c-8.99-125.48-200.19-119.15-200.22,7.3c0.21,29.93-0.15,95.57,0,124.99h-25c0,0,0-125.26,0-125.26
	C10.31,127.38,195.82,86.6,250,203.22C304.24,86.58,489.68,127.45,487.5,258.26z"/>
<path class="st2" d="M1494.47,133.37c-143.56,6.76-126.42,146.71-124.84,250.13h24.87c5.65-88.56-27.67-216.47,100-224.97
	L1494.47,133.37z"/>
<path class="st2" d="M1876.5,130.5c-2.81,88.11,26.42,217.87-100,225c-126.43-7.16-97.18-136.88-100-225h-25c0,0,0,125,0,125
	c-4.22,117.57,159.33,169.76,225,75.01c7.08,73.68-13.81,146.8-100,149.99v25c143.5-6.65,126.45-146.6,124.99-250
	c0.01,0,0.01-125,0.01-125H1876.5z"/>
<path class="st0" d="M952.59,134c-40.93-0.03-77.27,19.61-100.09,49.99V12.5h-25v250h0.05c5.02,162.08,251.63,157.29,249.94-5.32
	C1076.52,189.22,1020.57,134.05,952.59,134z M952.5,358.76c-131.45-2.24-131.43-197.77,0-200
	C1083.95,161,1083.93,356.53,952.5,358.76z"/>
<path class="st3" d="M1100.51,256.72c-0.97,69.85,55.36,126.78,124.99,126.78v-25c-55.23,0-100-44.77-100-100
	c13.36,0,219.33,0,225,0C1347.82,95.24,1105.75,93.79,1100.51,256.72z M1128.15,233.5c22.91-98.29,170.81-98.25,193.7,0H1128.15z"/>
<path class="st2" d="M1631.5,133.5c-143.47,6.6-126.46,146.64-125,250h25c2.8-88.11-26.41-217.87,100-225V133.5z"/>
<path class="st4" d="M1224.98,159c-55.23,0-100,44.77-100,100h200C1324.98,203.77,1280.21,159,1224.98,159z"/>
<path class="st5" d="M952.99,359c55.23,0,100-44.77,100-100h-200C852.99,314.23,897.76,359,952.99,359z"/>
<path class="st4" d="M361.98,159c-55.23,0-100,44.77-100,100h200C461.98,203.77,417.21,159,361.98,159z"/>
<path class="st4" d="M137.98,159c-55.23,0-100,44.77-100,100h200C237.98,203.77,193.21,159,137.98,159z"/>
<path class="st5" d="M632.98,359c55.23,0,100-44.77,100-100h-200C532.98,314.23,577.75,359,632.98,359z"/>
<path class="st5" d="M1776.98,355c55.23,0,100-44.77,100-100h-200C1676.98,310.23,1721.75,355,1776.98,355z"/>
<path class="st4" d="M953,159c-55.23,0-100,44.77-100,100h200C1053,203.77,1008.23,159,953,159z"/>
<line class="st6" x1="11" y1="258" x2="1919" y2="255.98"/>
<text transform="matrix(1 0 0 1 7.9854 505.9834)"><tspan x="0" y="0" class="st7 st8 st9 st10">L  A  N  D  S  C  A  P  E</tspan><tspan x="706.9" y="0" class="st7 st8 st11">           </tspan><tspan x="854.07" y="0" class="st7 st8 st9 st12">A  R  C  H  I  T  E  C T  U  R  E</tspan><tspan x="1757.37" y="0" class="st7 st8 st13 st12"> </tspan></text>
<path class="st4" d="M820,481.5c-0.62,36.15-54.39,36.14-55,0C765.62,445.35,819.39,445.36,820,481.5z"/>
<path class="st14" d="M828.5,454.5"/>
<path class="st14" d="M797.5,459.5"/>
<rect x="1776" y="486" class="st15" width="26" height="20"/>
</svg>
